inDegrees=no
num_controls=7
num_derivatives=13
num_iterations=34
num_multipliers=7
num_parameters=0
num_slacks=7
num_states=26
objective=0.426642
objective_accelerations=0.057604
objective_balance=0.001115
objective_effort=0.015424
objective_height=0.346457
objective_ligament=0.006043
solver_duration=501.968840
status=Solve_Succeeded
success=true
DataType=double
version=3
OpenSimVersion=4.5
endheader
time	/jointset/ground_pelvis/pelvis_tilt/value	/jointset/ground_pelvis/pelvis_tx/value	/jointset/ground_pelvis/pelvis_ty/value	/jointset/hip_l/hip_flexion_l/value	/jointset/hip_l/hip_adduction_l/value	/jointset/hip_l/hip_rotation_l/value	/jointset/back/lumbar_extension/value	/jointset/patellofemoral_l/patellar_flexion_l/value	/jointset/knee_l/knee_flexion_l/value	/jointset/knee_l/knee_adduction_l/value	/jointset/knee_l/knee_rotation_l/value	/jointset/ankle_l/ankle_angle_l/value	/jointset/subtalar_l/subtalar_angle_l/value	/jointset/ground_pelvis/pelvis_tilt/speed	/jointset/ground_pelvis/pelvis_tx/speed	/jointset/ground_pelvis/pelvis_ty/speed	/jointset/hip_l/hip_flexion_l/speed	/jointset/hip_l/hip_adduction_l/speed	/jointset/hip_l/hip_rotation_l/speed	/jointset/back/lumbar_extension/speed	/jointset/patellofemoral_l/patellar_flexion_l/speed	/jointset/knee_l/knee_flexion_l/speed	/jointset/knee_l/knee_adduction_l/speed	/jointset/knee_l/knee_rotation_l/speed	/jointset/ankle_l/ankle_angle_l/speed	/jointset/subtalar_l/subtalar_angle_l/speed	/forceset/tau_hip_flexion_l	/forceset/tau_hip_adduction_l	/forceset/tau_hip_rotation_l	/forceset/tau_knee_flexion_l	/forceset/tau_ankle_angle_l	/forceset/tau_subtalar_angle_l	/forceset/tau_lumbar_extension	lambda_cid13_p0	lambda_cid13_p1	lambda_cid13_p2	lambda_cid13_p3	lambda_cid13_p4	lambda_cid13_p5	lambda_cid14_p0	/jointset/ground_pelvis/pelvis_tilt/accel	/jointset/ground_pelvis/pelvis_tx/accel	/jointset/ground_pelvis/pelvis_ty/accel	/jointset/hip_l/hip_flexion_l/accel	/jointset/hip_l/hip_adduction_l/accel	/jointset/hip_l/hip_rotation_l/accel	/jointset/back/lumbar_extension/accel	/jointset/patellofemoral_l/patellar_flexion_l/accel	/jointset/knee_l/knee_flexion_l/accel	/jointset/knee_l/knee_adduction_l/accel	/jointset/knee_l/knee_rotation_l/accel	/jointset/ankle_l/ankle_angle_l/accel	/jointset/subtalar_l/subtalar_angle_l/accel	gamma_cid13_p0	gamma_cid13_p1	gamma_cid13_p2	gamma_cid13_p3	gamma_cid13_p4	gamma_cid13_p5	gamma_cid14_p0
1	-0.4472690110556041	-0.0005836133133982035	0.5981401329934353	1.68500852479281	-0.3486812075926427	0.1465349428838216	-0.4362744615197396	1.499298247834338	1.499298247834321	0.04353237350246501	-0.174462250437995	0.4349467219818209	0.2455607717830914	-0.1319763104319639	0.006782768585831802	0.04601985383328439	-0.02163510022768443	-0.004662555969702452	-0.05345196672952712	-0.001648828659553457	-0.1848537865686481	-0.1848537865686807	-0.02450346093011786	0.0003267420216125774	-0.04772378489292031	-0.03619554413806433	-0.2335969348235575	0.08624037282329938	-0.008136050559242021	-0.2952872213741278	-0.009555827092772581	-0.02013626422868921	0.2053374752548397	-39.47703511173607	26.86704177393009	-17.3685472275094	1.96198070960841	-541.4251441156919	-27.18393319704969	-0.02369336628919265	1.415475306471238	0.2903586225883434	1.981927914148436	-6.579590366292747	-0.2649682497398953	-1.601583213524151	-0.01732214960843765	-5.522095058172325	-5.522095058172311	-0.8332524712123874	-0.0240486408084471	-0.8365584608044005	-0.9177738131622514	-7.836590984728881e-09	-1.193317899147577e-07	-3.759791064781452e-08	-7.181815272687006e-09	-8.878060403173648e-09	-1.254226991019047e-07	-1.06204160040991e-09
1.01	-0.4485186935437534	-0.0005012460349738622	0.5986991965780858	1.684464288062037	-0.3487405018049194	0.1459217518471342	-0.4362907093406149	1.497173955485869	1.497173955485836	0.04324516859371356	-0.1744588013318856	0.4344275990146343	0.2451538749655651	-0.1179473537256308	0.009699174997556102	0.0657824124058672	-0.08720410948812141	-0.007190704874382088	-0.06918096436346784	-0.001583244256534693	-0.2400008686144375	-0.2400008686144186	-0.03293118847488666	0.0003634847472463034	-0.05611555688809353	-0.04517719605969839	-0.2340736810647382	0.08620084278566903	-0.008130676246136261	-0.2941537594392736	-0.01013271435306958	-0.02006528296875926	0.2056161282734442	-39.60907680846381	26.78765255420464	-17.27401288153112	1.896569749154568	-541.2375806942985	-27.12688062353452	-0.02371309667354975	1.39853011893289	0.2935520692654316	1.971849666995366	-6.544336631384681	-0.2458907938603664	-1.557776457508475	0.02112242543852626	-5.510442254231529	-5.510442254223763	-0.8465970270339771	0.01757758610100747	-0.8427073030864084	-0.8873376473566089	-8.590396148872752e-09	-1.489228776900464e-07	-4.9792869817053e-08	-1.376403981135554e-08	-1.275184393421047e-08	-1.511808888590527e-07	-1.727840086567395e-09
1.02	-0.4496277016115975	-0.0003894606086718722	0.599455571716098	1.683264605153578	-0.348824908022848	0.1451514271502723	-0.4363057765793632	1.494498306821652	1.494498306821596	0.04287387358328772	-0.1744549764271474	0.4338241141806484	0.2446573662756837	-0.1038414263705547	0.01266639816136156	0.08548216450572799	-0.1527243357671778	-0.009684957100195639	-0.08487869876458617	-0.001412712246252966	-0.2951250497182015	-0.2951250497181311	-0.0413214812566499	0.0004019017469476499	-0.06459615825177256	-0.05411791860903888	-0.2345504273058282	0.08616131274804784	-0.008125301933207473	-0.2930202975044303	-0.01070960161338191	-0.01999430170881935	0.2058947812921419	-39.74319581112887	26.70568101173974	-17.17570155446017	1.821000119436064	-541.1615183595392	-27.07083624538817	-0.02373451584330629	1.430869436219789	0.3005219730046215	1.969366619604035	-6.569833770016649	-0.2581889139667096	-1.595330566959678	0.003667371844953729	-5.517514869767229	-5.517514869767233	-0.8257655186112993	-0.02371378599496167	-0.8543243345054775	-0.9095879387035346	-9.544379390632073e-09	-1.780522576063525e-07	-5.967293602775706e-08	-1.998576169274366e-08	-1.664929764480979e-08	-1.735793227734594e-07	-2.952648420203705e-09
1.03	-0.4505952571314912	-0.0002477130790435289	0.6004085335542786	1.681410157460735	-0.3489340505549822	0.1442242597522888	-0.4363184417597513	1.491271664819341	1.491271664819284	0.04241899192988333	-0.1744507594251075	0.4331353345906704	0.2440717101963179	-0.08965601243712701	0.01569519678335261	0.1050901585172535	-0.2181382422918188	-0.01213502867509943	-0.1005462959399034	-0.001085642274124867	-0.3501862516792308	-0.3501862516791945	-0.04964238160723038	0.0004411700374893805	-0.07317889422200234	-0.06300227279816489	-0.2348907235321071	0.08614337193301869	-0.008106557554644088	-0.2915857262588917	-0.01134799024473231	-0.01989672546506455	0.2061027734402699	-39.87060254363524	26.59528621087984	-17.05492832281781	1.73555157336357	-540.792882735559	-26.99516144147704	-0.02376312932029679	1.414425526687875	0.3058668813267394	1.953504966955592	-6.523126827199189	-0.2371232710926899	-1.55121642719272	0.05242904608545921	-5.497857155436069	-5.497857155441152	-0.833402830445954	0.01767176467962134	-0.8631300081197598	-0.8761640327016996	-1.050040526583645e-08	-2.071769262179751e-07	-6.952938088174136e-08	-2.62038049755881e-08	-2.054699288785363e-08	-1.95943473464981e-07	-4.183160935957148e-09
1.04	-0.4514205488810915	-7.531594828901793e-05	0.6015569731675795	1.678902379155962	-0.3490674352012316	0.1431406679556745	-0.4363267957931543	1.487494923938186	1.487494923938115	0.04188127116549448	-0.1744461648145343	0.4323601512850209	0.2433975496003236	-0.07538867231235701	0.0187963183865951	0.1245777195299066	-0.2833904581569181	-0.01453337992361987	-0.1161635784902195	-0.0005504828544525795	-0.405144825486876	-0.4051448254868739	-0.05788930344439257	0.0004774234520649666	-0.08187690138575457	-0.07181882193467515	-0.2352310197582605	0.08612543111799119	-0.008087813176273146	-0.2901511550133672	-0.01198637887610562	-0.01979914922131626	0.2063107655885285	-40.0003706682739	26.48241477336221	-16.93045887916423	1.640308617099778	-540.5373620206577	-26.92129055361703	-0.02379350743914053	1.447254674488195	0.3149865692549521	1.945280019829557	-6.53749563810831	-0.2478448486900685	-1.585267641959439	0.04528526135485811	-5.49698923909041	-5.496989239090414	-0.8109698159276679	-0.02431676118822717	-0.8773785732098877	-0.8960269281803831	-1.159301138584415e-08	-2.337908601764677e-07	-7.480210622375495e-08	-3.187124148590918e-08	-2.405584112456809e-08	-2.113258374864857e-07	-6.332399112551885e-09
1.05	-0.452102959916272	0.0001285041046436184	0.6028995503226144	1.675743327340565	-0.3492245272520114	0.1419011943873028	-0.4363281584305656	1.483169310521521	1.483169310521533	0.04126152009887305	-0.1744412498423562	0.4314974011247223	0.2426356053825097	-0.06110131518125375	0.02198473915443508	0.1439040507533876	-0.348348340828836	-0.01687530613615781	-0.1317121761763173	0.0003740334967896426	-0.4599407783251832	-0.4599407783251355	-0.06604943259867942	0.0005025054453699114	-0.09069319412682825	-0.08055547788475267	-0.2355133015739994	0.08612793627038826	-0.008059024440959531	-0.2883470012134954	-0.01273555883118877	-0.01967640092340525	0.2065285025221172	-40.13881466936011	26.34195619699981	-16.78083238018059	1.522403512987548	-539.9981744414828	-26.81692680057959	-0.02383050392196439	1.418306651068671	0.3233193124574044	1.921255019243354	-6.464202716137505	-0.2258894522058322	-1.536832684050268	0.1304465479497526	-5.465334653972879	-5.465334653965993	-0.8168407756165935	0.01543008046936372	-0.8867787189102423	-0.8602521638689369	-1.268988563850196e-08	-2.603263336770499e-07	-7.99315903310195e-08	-3.752147153458891e-08	-2.755253789233476e-08	-2.264900206745524e-07	-8.510347466047908e-09
1.06	-0.4526427312964076	0.0003647182616365963	0.6044343798590107	1.671936843071594	-0.349404743153847	0.140506799471639	-0.4363173935598618	1.478296850306919	1.478296850306995	0.04056050647857044	-0.1744361821700558	0.4305458832181434	0.2417867411581053	-0.04686074130426236	0.02527513919866342	0.1630281958022789	-0.4128769488769186	-0.01915815013549825	-0.1471478479470276	0.001875018885639839	-0.5145141850743751	-0.5145141850742809	-0.07414181417046263	0.0005079634738536755	-0.09963045064206885	-0.08920282325273207	-0.2357955833895581	0.08613044142277819	-0.008030235705857598	-0.2865428474136417	-0.01348473878630635	-0.01955365262552328	0.2067462394558947	-40.27997287498544	26.19914919083362	-16.62760601746182	1.395083537156227	-539.5738864344562	-26.71554047776387	-0.02386938419250351	1.437898023665765	0.33538242453266	1.904842784911633	-6.451640713341284	-0.2360284060505911	-1.562682458881928	0.1605790688759112	-5.452480021267332	-5.45248002126718	-0.7974202994269706	-0.02824155415249179	-0.9015713280432093	-0.8781648117607567	-1.394135050779902e-08	-2.850020736625292e-07	-8.302572115686104e-08	-4.23606284091368e-08	-3.089546679394137e-08	-2.380698057120004e-07	-1.098137735754121e-08
1.07	-0.4530403763889109	0.0006344039163048412	0.6061593181136404	1.667487480032147	-0.349607478809172	0.138958625822085	-0.4362883058956564	1.472879993245847	1.47287999324591	0.03977900852822124	-0.174431177867266	0.4295044276462912	0.2408519161723901	-0.0326831950296609	0.02868471089619642	0.1819134551764017	-0.4768960817660076	-0.02137818887895213	-0.1624600371681717	0.00408485872002712	-0.5687976236853735	-0.5687976236852851	-0.08214396558687614	0.0004883997705300808	-0.108676580192836	-0.0977412758507028	-0.2360334411799444	0.08615249763519268	-0.007993809907314135	-0.2843458193387959	-0.01436903722969356	-0.01940261604452716	0.2069772913318355	-40.43709916716656	26.02718596481836	-16.44726760082477	1.248585428266044	-538.860825100978	-26.58543527688632	-0.02391425578875231	1.405441906220716	0.3471429174800235	1.873460628394625	-6.36211662778292	-0.2133512783697607	-1.511487094198891	0.2725381513655534	-5.407332534039943	-5.407332534040854	-0.7995761425957291	0.01047737788872062	-0.9085386509814345	-0.8384909669699183	-1.520103828223646e-08	-3.095788916525244e-07	-8.601158851028645e-08	-4.715664309357129e-08	-3.423021655373096e-08	-2.494589312733517e-07	-1.3467996692545e-08
1.08	-0.4532966942232929	0.0009388649629718742	0.6080717275849569	1.662400912253611	-0.3498320867859033	0.137258130292212	-0.4362328494908227	1.46692209044806	1.466922090448095	0.03891789634771454	-0.174426510970232	0.4283720298024588	0.2398323455640642	-0.01859528968052431	0.03223021759842102	0.2005224391397851	-0.540317896698707	-0.02353261441747632	-0.1776122240080474	0.007148766980213729	-0.62272333241733	-0.6227233324172476	-0.090064660197179	0.0004404823196455592	-0.1178189050391233	-0.1061519477748631	-0.2362712989701965	0.08617455384757582	-0.007957384108869906	-0.2821487912639666	-0.01525333567311441	-0.01925157946359845	0.2072083432079132	-40.59735185878805	25.85304111482317	-16.26346404355978	1.092826660144485	-538.2645132898958	-26.45980431769562	-0.02396117297020597	1.419969838572731	0.3625694254710112	1.849587702763772	-6.332177122063399	-0.2229057650646746	-1.530681982628254	0.331392754035169	-5.380934045458975	-5.380934045458851	-0.781128938204859	-0.03391230366469686	-0.9208103871471928	-0.8526086769986715	-1.654960209144857e-08	-3.3121727033676e-07	-8.778194283046263e-08	-5.058949341722271e-08	-3.75400038219927e-08	-2.59201643386882e-07	-1.567495635055556e-08
